<svg xmlns="http://www.w3.org/2000/svg" version="1.1" xmlns:xlink="http://www.w3.org/1999/xlink" xmlns:svgjs="http://svgjs.com/svgjs" width="1440" height="560" preserveAspectRatio="none" viewBox="0 0 1440 560"><g mask="url(&quot;#SvgjsMask1000&quot;)" fill="none"><rect width="1440" height="560" x="0" y="0" fill="#0e2a47"></rect><path d="M-73.33 360.46L-73.33 360.46" stroke="#132e65" stroke-width="1.5"></path><path d="M-73.33 360.46L-69.56 542.58" stroke="#132e65" stroke-width="1.5"></path><path d="M-73.33 360.46L108.33 501.76" stroke="#132e65" stroke-width="1.5"></path><path d="M-69.56 542.58L-69.56 542.58" stroke="#132e65" stroke-width="1.5"></path><path d="M-69.56 542.58L-64.84 692.26" stroke="#132e65" stroke-width="1.5"></path><path d="M-64.84 692.26L-64.84 692.26" stroke="#132e65" stroke-width="1.5"></path><path d="M108.33 501.76L108.33 501.76" stroke="#132e65" stroke-width="1.5"></path><path d="M108.33 501.76L232.21 504.06" stroke="#132e65" stroke-width="1.5"></path><path d="M108.33 501.76L233.7 387.61" stroke="#132e65" stroke-width="1.5"></path><path d="M108.33 501.76L-69.56 542.58" stroke="#132e65" stroke-width="1.5"></path><path d="M108.33 501.76L98.62 707.28" stroke="#132e65" stroke-width="1.5"></path><path d="M98.62 707.28L98.62 707.28" stroke="#132e65" stroke-width="1.5"></path><path d="M98.62 707.28L215.24 708.35" stroke="#132e65" stroke-width="1.5"></path><path d="M98.62 707.28L-64.84 692.26" stroke="#132e65" stroke-width="1.5"></path><path d="M98.62 707.28L-69.56 542.58" stroke="#132e65" stroke-width="1.5"></path><path d="M233.7 387.61L233.7 387.61" stroke="#132e65" stroke-width="1.5"></path><path d="M233.7 387.61L232.21 504.06" stroke="#132e65" stroke-width="1.5"></path><path d="M233.7 387.61L367.7 380.46" stroke="#132e65" stroke-width="1.5"></path><path d="M233.7 387.61L373.67 522.93" stroke="#132e65" stroke-width="1.5"></path><path d="M233.7 387.61L514.69 366.46" stroke="#132e65" stroke-width="1.5"></path><path d="M232.21 504.06L232.21 504.06" stroke="#132e65" stroke-width="1.5"></path><path d="M232.21 504.06L373.67 522.93" stroke="#132e65" stroke-width="1.5"></path><path d="M215.24 708.35L215.24 708.35" stroke="#132e65" stroke-width="1.5"></path><path d="M215.24 708.35L232.21 504.06" stroke="#132e65" stroke-width="1.5"></path><path d="M367.7 380.46L367.7 380.46" stroke="#132e65" stroke-width="1.5"></path><path d="M367.7 380.46L373.67 522.93" stroke="#132e65" stroke-width="1.5"></path><path d="M373.67 522.93L373.67 522.93" stroke="#132e65" stroke-width="1.5"></path><path d="M373.67 522.93L516.49 517.47" stroke="#132e65" stroke-width="1.5"></path><path d="M373.67 522.93L531.61 642.04" stroke="#132e65" stroke-width="1.5"></path><path d="M373.67 522.93L514.69 366.46" stroke="#132e65" stroke-width="1.5"></path><path d="M514.69 366.46L514.69 366.46" stroke="#132e65" stroke-width="1.5"></path><path d="M514.69 366.46L367.7 380.46" stroke="#132e65" stroke-width="1.5"></path><path d="M514.69 366.46L516.49 517.47" stroke="#132e65" stroke-width="1.5"></path><path d="M514.69 366.46L663.81 540.66" stroke="#132e65" stroke-width="1.5"></path><path d="M516.49 517.47L516.49 517.47" stroke="#132e65" stroke-width="1.5"></path><path d="M516.49 517.47L531.61 642.04" stroke="#132e65" stroke-width="1.5"></path><path d="M516.49 517.47L663.81 540.66" stroke="#132e65" stroke-width="1.5"></path><path d="M516.49 517.47L367.7 380.46" stroke="#132e65" stroke-width="1.5"></path><path d="M531.61 642.04L531.61 642.04" stroke="#132e65" stroke-width="1.5"></path><path d="M531.61 642.04L695.59 642.26" stroke="#132e65" stroke-width="1.5"></path><path d="M531.61 642.04L663.81 540.66" stroke="#132e65" stroke-width="1.5"></path><path d="M531.61 642.04L514.69 366.46" stroke="#132e65" stroke-width="1.5"></path><path d="M531.61 642.04L814.97 671.65" stroke="#132e65" stroke-width="1.5"></path><path d="M663.81 540.66L663.81 540.66" stroke="#132e65" stroke-width="1.5"></path><path d="M663.81 540.66L695.59 642.26" stroke="#132e65" stroke-width="1.5"></path><path d="M695.59 642.26L695.59 642.26" stroke="#132e65" stroke-width="1.5"></path><path d="M695.59 642.26L814.97 671.65" stroke="#132e65" stroke-width="1.5"></path><path d="M695.59 642.26L862.02 518.66" stroke="#132e65" stroke-width="1.5"></path><path d="M695.59 642.26L516.49 517.47" stroke="#132e65" stroke-width="1.5"></path><path d="M695.59 642.26L838.95 409.69" stroke="#132e65" stroke-width="1.5"></path><path d="M846.07 205.95L846.07 205.95" stroke="#132e65" stroke-width="1.5"></path><path d="M846.07 205.95L980.84 189.08" stroke="#132e65" stroke-width="1.5"></path><path d="M846.07 205.95L838.95 409.69" stroke="#132e65" stroke-width="1.5"></path><path d="M846.07 205.95L994.96 57.08" stroke="#132e65" stroke-width="1.5"></path><path d="M838.95 409.69L838.95 409.69" stroke="#132e65" stroke-width="1.5"></path><path d="M838.95 409.69L862.02 518.66" stroke="#132e65" stroke-width="1.5"></path><path d="M838.95 409.69L995.34 377.59" stroke="#132e65" stroke-width="1.5"></path><path d="M838.95 409.69L960.76 538.24" stroke="#132e65" stroke-width="1.5"></path><path d="M862.02 518.66L862.02 518.66" stroke="#132e65" stroke-width="1.5"></path><path d="M862.02 518.66L960.76 538.24" stroke="#132e65" stroke-width="1.5"></path><path d="M814.97 671.65L814.97 671.65" stroke="#132e65" stroke-width="1.5"></path><path d="M814.97 671.65L862.02 518.66" stroke="#132e65" stroke-width="1.5"></path><path d="M814.97 671.65L998.63 648.37" stroke="#132e65" stroke-width="1.5"></path><path d="M960.35 -66.54L960.35 -66.54" stroke="#132e65" stroke-width="1.5"></path><path d="M960.35 -66.54L994.96 57.08" stroke="#132e65" stroke-width="1.5"></path><path d="M960.35 -66.54L1088.16 -87.82" stroke="#132e65" stroke-width="1.5"></path><path d="M960.35 -66.54L1129.47 49.16" stroke="#132e65" stroke-width="1.5"></path><path d="M960.35 -66.54L980.84 189.08" stroke="#132e65" stroke-width="1.5"></path><path d="M994.96 57.08L994.96 57.08" stroke="#132e65" stroke-width="1.5"></path><path d="M994.96 57.08L980.84 189.08" stroke="#132e65" stroke-width="1.5"></path><path d="M994.96 57.08L1129.47 49.16" stroke="#132e65" stroke-width="1.5"></path><path d="M994.96 57.08L1088.16 -87.82" stroke="#132e65" stroke-width="1.5"></path><path d="M980.84 189.08L980.84 189.08" stroke="#132e65" stroke-width="1.5"></path><path d="M980.84 189.08L1160.23 224.97" stroke="#132e65" stroke-width="1.5"></path><path d="M980.84 189.08L995.34 377.59" stroke="#132e65" stroke-width="1.5"></path><path d="M980.84 189.08L1129.47 49.16" stroke="#132e65" stroke-width="1.5"></path><path d="M995.34 377.59L995.34 377.59" stroke="#132e65" stroke-width="1.5"></path><path d="M995.34 377.59L1132.42 356.37" stroke="#132e65" stroke-width="1.5"></path><path d="M995.34 377.59L960.76 538.24" stroke="#132e65" stroke-width="1.5"></path><path d="M995.34 377.59L1093.25 530.16" stroke="#132e65" stroke-width="1.5"></path><path d="M995.34 377.59L862.02 518.66" stroke="#132e65" stroke-width="1.5"></path><path d="M960.76 538.24L960.76 538.24" stroke="#132e65" stroke-width="1.5"></path><path d="M960.76 538.24L998.63 648.37" stroke="#132e65" stroke-width="1.5"></path><path d="M960.76 538.24L1093.25 530.16" stroke="#132e65" stroke-width="1.5"></path><path d="M960.76 538.24L814.97 671.65" stroke="#132e65" stroke-width="1.5"></path><path d="M998.63 648.37L998.63 648.37" stroke="#132e65" stroke-width="1.5"></path><path d="M998.63 648.37L1148.14 640.98" stroke="#132e65" stroke-width="1.5"></path><path d="M998.63 648.37L1093.25 530.16" stroke="#132e65" stroke-width="1.5"></path><path d="M1088.16 -87.82L1088.16 -87.82" stroke="#132e65" stroke-width="1.5"></path><path d="M1088.16 -87.82L1129.47 49.16" stroke="#132e65" stroke-width="1.5"></path><path d="M1088.16 -87.82L1239.36 -107.24" stroke="#132e65" stroke-width="1.5"></path><path d="M1129.47 49.16L1129.47 49.16" stroke="#132e65" stroke-width="1.5"></path><path d="M1129.47 49.16L1266.52 59.76" stroke="#132e65" stroke-width="1.5"></path><path d="M1160.23 224.97L1160.23 224.97" stroke="#132e65" stroke-width="1.5"></path><path d="M1160.23 224.97L1238.57 252.39" stroke="#132e65" stroke-width="1.5"></path><path d="M1160.23 224.97L1132.42 356.37" stroke="#132e65" stroke-width="1.5"></path><path d="M1160.23 224.97L1240.05 345.31" stroke="#132e65" stroke-width="1.5"></path><path d="M1160.23 224.97L1129.47 49.16" stroke="#132e65" stroke-width="1.5"></path><path d="M1132.42 356.37L1132.42 356.37" stroke="#132e65" stroke-width="1.5"></path><path d="M1132.42 356.37L1240.05 345.31" stroke="#132e65" stroke-width="1.5"></path><path d="M1093.25 530.16L1093.25 530.16" stroke="#132e65" stroke-width="1.5"></path><path d="M1093.25 530.16L1148.14 640.98" stroke="#132e65" stroke-width="1.5"></path><path d="M1093.25 530.16L1240.4 529.33" stroke="#132e65" stroke-width="1.5"></path><path d="M1093.25 530.16L1132.42 356.37" stroke="#132e65" stroke-width="1.5"></path><path d="M1148.14 640.98L1148.14 640.98" stroke="#132e65" stroke-width="1.5"></path><path d="M1148.14 640.98L1256.3 696.47" stroke="#132e65" stroke-width="1.5"></path><path d="M1239.36 -107.24L1239.36 -107.24" stroke="#132e65" stroke-width="1.5"></path><path d="M1266.52 59.76L1266.52 59.76" stroke="#132e65" stroke-width="1.5"></path><path d="M1266.52 59.76L1239.36 -107.24" stroke="#132e65" stroke-width="1.5"></path><path d="M1266.52 59.76L1457.67 63.66" stroke="#132e65" stroke-width="1.5"></path><path d="M1266.52 59.76L1238.57 252.39" stroke="#132e65" stroke-width="1.5"></path><path d="M1266.52 59.76L1160.23 224.97" stroke="#132e65" stroke-width="1.5"></path><path d="M1238.57 252.39L1238.57 252.39" stroke="#132e65" stroke-width="1.5"></path><path d="M1238.57 252.39L1240.05 345.31" stroke="#132e65" stroke-width="1.5"></path><path d="M1238.57 252.39L1132.42 356.37" stroke="#132e65" stroke-width="1.5"></path><path d="M1238.57 252.39L1424.37 198.62" stroke="#132e65" stroke-width="1.5"></path><path d="M1240.05 345.31L1240.05 345.31" stroke="#132e65" stroke-width="1.5"></path><path d="M1240.05 345.31L1240.4 529.33" stroke="#132e65" stroke-width="1.5"></path><path d="M1240.4 529.33L1240.4 529.33" stroke="#132e65" stroke-width="1.5"></path><path d="M1240.4 529.33L1148.14 640.98" stroke="#132e65" stroke-width="1.5"></path><path d="M1240.4 529.33L1256.3 696.47" stroke="#132e65" stroke-width="1.5"></path><path d="M1256.3 696.47L1256.3 696.47" stroke="#132e65" stroke-width="1.5"></path><path d="M1412.17 -80.67L1412.17 -80.67" stroke="#132e65" stroke-width="1.5"></path><path d="M1412.17 -80.67L1457.67 63.66" stroke="#132e65" stroke-width="1.5"></path><path d="M1412.17 -80.67L1239.36 -107.24" stroke="#132e65" stroke-width="1.5"></path><path d="M1412.17 -80.67L1587.75 -107.63" stroke="#132e65" stroke-width="1.5"></path><path d="M1412.17 -80.67L1266.52 59.76" stroke="#132e65" stroke-width="1.5"></path><path d="M1457.67 63.66L1457.67 63.66" stroke="#132e65" stroke-width="1.5"></path><path d="M1457.67 63.66L1424.37 198.62" stroke="#132e65" stroke-width="1.5"></path><path d="M1457.67 63.66L1609.71 107.45" stroke="#132e65" stroke-width="1.5"></path><path d="M1424.37 198.62L1424.37 198.62" stroke="#132e65" stroke-width="1.5"></path><path d="M1424.37 198.62L1432.83 339.19" stroke="#132e65" stroke-width="1.5"></path><path d="M1432.83 339.19L1432.83 339.19" stroke="#132e65" stroke-width="1.5"></path><path d="M1432.83 339.19L1551.32 397.22" stroke="#132e65" stroke-width="1.5"></path><path d="M1459.5 550.77L1459.5 550.77" stroke="#132e65" stroke-width="1.5"></path><path d="M1459.5 550.77L1451.8 642.43" stroke="#132e65" stroke-width="1.5"></path><path d="M1459.5 550.77L1600.48 491.57" stroke="#132e65" stroke-width="1.5"></path><path d="M1451.8 642.43L1451.8 642.43" stroke="#132e65" stroke-width="1.5"></path><path d="M1451.8 642.43L1256.3 696.47" stroke="#132e65" stroke-width="1.5"></path><path d="M1451.8 642.43L1600.48 491.57" stroke="#132e65" stroke-width="1.5"></path><path d="M1451.8 642.43L1240.4 529.33" stroke="#132e65" stroke-width="1.5"></path><path d="M1451.8 642.43L1551.32 397.22" stroke="#132e65" stroke-width="1.5"></path><path d="M1451.8 642.43L1148.14 640.98" stroke="#132e65" stroke-width="1.5"></path><path d="M1587.75 -107.63L1587.75 -107.63" stroke="#132e65" stroke-width="1.5"></path><path d="M1587.75 -107.63L1457.67 63.66" stroke="#132e65" stroke-width="1.5"></path><path d="M1609.71 107.45L1609.71 107.45" stroke="#132e65" stroke-width="1.5"></path><path d="M1609.71 107.45L1597.94 238.55" stroke="#132e65" stroke-width="1.5"></path><path d="M1609.71 107.45L1424.37 198.62" stroke="#132e65" stroke-width="1.5"></path><path d="M1609.71 107.45L1587.75 -107.63" stroke="#132e65" stroke-width="1.5"></path><path d="M1609.71 107.45L1412.17 -80.67" stroke="#132e65" stroke-width="1.5"></path><path d="M1609.71 107.45L1432.83 339.19" stroke="#132e65" stroke-width="1.5"></path><path d="M1597.94 238.55L1597.94 238.55" stroke="#132e65" stroke-width="1.5"></path><path d="M1597.94 238.55L1551.32 397.22" stroke="#132e65" stroke-width="1.5"></path><path d="M1551.32 397.22L1551.32 397.22" stroke="#132e65" stroke-width="1.5"></path><path d="M1551.32 397.22L1600.48 491.57" stroke="#132e65" stroke-width="1.5"></path><path d="M1600.48 491.57L1600.48 491.57" stroke="#132e65" stroke-width="1.5"></path><path d="M1600.48 491.57L1432.83 339.19" stroke="#132e65" stroke-width="1.5"></path><path d="M1600.48 491.57L1597.94 238.55" stroke="#132e65" stroke-width="1.5"></path><circle r="5" cx="-73.33" cy="360.46" fill="#132e65"></circle><circle r="5" cx="-69.56" cy="542.58" fill="#132e65"></circle><circle r="5" cx="-64.84" cy="692.26" fill="#132e65"></circle><circle r="5" cx="108.33" cy="501.76" fill="#132e65"></circle><circle r="5" cx="98.62" cy="707.28" fill="#132e65"></circle><circle r="5" cx="233.7" cy="387.61" fill="#132e65"></circle><circle r="5" cx="232.21" cy="504.06" fill="#132e65"></circle><circle r="5" cx="215.24" cy="708.35" fill="#132e65"></circle><circle r="5" cx="367.7" cy="380.46" fill="#132e65"></circle><circle r="5" cx="373.67" cy="522.93" fill="#132e65"></circle><circle r="5" cx="514.69" cy="366.46" fill="#132e65"></circle><circle r="5" cx="516.49" cy="517.47" fill="#132e65"></circle><circle r="5" cx="531.61" cy="642.04" fill="#132e65"></circle><circle r="5" cx="663.81" cy="540.66" fill="#132e65"></circle><circle r="5" cx="695.59" cy="642.26" fill="#132e65"></circle><circle r="5" cx="846.07" cy="205.95" fill="#132e65"></circle><circle r="5" cx="838.95" cy="409.69" fill="#132e65"></circle><circle r="5" cx="862.02" cy="518.66" fill="#132e65"></circle><circle r="5" cx="814.97" cy="671.65" fill="#132e65"></circle><circle r="5" cx="960.35" cy="-66.54" fill="#132e65"></circle><circle r="5" cx="994.96" cy="57.08" fill="#132e65"></circle><circle r="5" cx="980.84" cy="189.08" fill="#132e65"></circle><circle r="5" cx="995.34" cy="377.59" fill="#132e65"></circle><circle r="5" cx="960.76" cy="538.24" fill="#132e65"></circle><circle r="5" cx="998.63" cy="648.37" fill="#132e65"></circle><circle r="5" cx="1088.16" cy="-87.82" fill="#132e65"></circle><circle r="5" cx="1129.47" cy="49.16" fill="#132e65"></circle><circle r="5" cx="1160.23" cy="224.97" fill="#132e65"></circle><circle r="5" cx="1132.42" cy="356.37" fill="#132e65"></circle><circle r="5" cx="1093.25" cy="530.16" fill="#132e65"></circle><circle r="5" cx="1148.14" cy="640.98" fill="#132e65"></circle><circle r="5" cx="1239.36" cy="-107.24" fill="#132e65"></circle><circle r="5" cx="1266.52" cy="59.76" fill="#132e65"></circle><circle r="5" cx="1238.57" cy="252.39" fill="#132e65"></circle><circle r="5" cx="1240.05" cy="345.31" fill="#132e65"></circle><circle r="5" cx="1240.4" cy="529.33" fill="#132e65"></circle><circle r="5" cx="1256.3" cy="696.47" fill="#132e65"></circle><circle r="5" cx="1412.17" cy="-80.67" fill="#132e65"></circle><circle r="5" cx="1457.67" cy="63.66" fill="#132e65"></circle><circle r="5" cx="1424.37" cy="198.62" fill="#132e65"></circle><circle r="5" cx="1432.83" cy="339.19" fill="#132e65"></circle><circle r="5" cx="1459.5" cy="550.77" fill="#132e65"></circle><circle r="5" cx="1451.8" cy="642.43" fill="#132e65"></circle><circle r="5" cx="1587.75" cy="-107.63" fill="#132e65"></circle><circle r="5" cx="1609.71" cy="107.45" fill="#132e65"></circle><circle r="5" cx="1597.94" cy="238.55" fill="#132e65"></circle><circle r="5" cx="1551.32" cy="397.22" fill="#132e65"></circle><circle r="5" cx="1600.48" cy="491.57" fill="#132e65"></circle><path d="M-39.07 538.72L-39.07 538.72" stroke="hsl(228.5, 77.2%, 51.5%)" stroke-width="1.5"></path><path d="M-39.07 538.72L45.43 516.87" stroke="hsl(228.5, 77.2%, 51.5%)" stroke-width="1.5"></path><path d="M-39.07 538.72L-103.57 657.91" stroke="hsl(228.5, 77.2%, 51.5%)" stroke-width="1.5"></path><path d="M-39.07 538.72L39.89 660.31" stroke="hsl(228.5, 77.2%, 51.5%)" stroke-width="1.5"></path><path d="M-39.07 538.72L247.78 511.23" stroke="hsl(228.5, 77.2%, 51.5%)" stroke-width="1.5"></path><path d="M-39.07 538.72L228.44 653.56" stroke="hsl(228.5, 77.2%, 51.5%)" stroke-width="1.5"></path><path d="M-39.07 538.72L347.63 516.33" stroke="hsl(228.5, 77.2%, 51.5%)" stroke-width="1.5"></path><path d="M39.89 660.31L39.89 660.31" stroke="hsl(228.5, 77.2%, 51.5%)" stroke-width="1.5"></path><path d="M39.89 660.31L-103.57 657.91" stroke="hsl(228.5, 77.2%, 51.5%)" stroke-width="1.5"></path><path d="M39.89 660.31L45.43 516.87" stroke="hsl(228.5, 77.2%, 51.5%)" stroke-width="1.5"></path><path d="M39.89 660.31L228.44 653.56" stroke="hsl(228.5, 77.2%, 51.5%)" stroke-width="1.5"></path><path d="M679.53 552.98L679.53 552.98" stroke="hsl(228.5, 77.2%, 51.5%)" stroke-width="1.5"></path><path d="M679.53 552.98L659.04 667.09" stroke="hsl(228.5, 77.2%, 51.5%)" stroke-width="1.5"></path><path d="M679.53 552.98L797.96 558.2" stroke="hsl(228.5, 77.2%, 51.5%)" stroke-width="1.5"></path><path d="M659.04 667.09L659.04 667.09" stroke="hsl(228.5, 77.2%, 51.5%)" stroke-width="1.5"></path><path d="M659.04 667.09L504.92 638" stroke="hsl(228.5, 77.2%, 51.5%)" stroke-width="1.5"></path><path d="M839.25 368.09L839.25 368.09" stroke="hsl(228.5, 77.2%, 51.5%)" stroke-width="1.5"></path><path d="M839.25 368.09L972.6 412.45" stroke="hsl(228.5, 77.2%, 51.5%)" stroke-width="1.5"></path><path d="M839.25 368.09L700.24 392.49" stroke="hsl(228.5, 77.2%, 51.5%)" stroke-width="1.5"></path><path d="M839.25 368.09L938.06 501.89" stroke="hsl(228.5, 77.2%, 51.5%)" stroke-width="1.5"></path><path d="M839.25 368.09L981.31 242.32" stroke="hsl(228.5, 77.2%, 51.5%)" stroke-width="1.5"></path><path d="M839.25 368.09L797.96 558.2" stroke="hsl(228.5, 77.2%, 51.5%)" stroke-width="1.5"></path><path d="M839.25 368.09L679.53 552.98" stroke="hsl(228.5, 77.2%, 51.5%)" stroke-width="1.5"></path><path d="M972.6 412.45L972.6 412.45" stroke="hsl(228.5, 77.2%, 51.5%)" stroke-width="1.5"></path><path d="M972.6 412.45L938.06 501.89" stroke="hsl(228.5, 77.2%, 51.5%)" stroke-width="1.5"></path><path d="M972.6 412.45L981.31 242.32" stroke="hsl(228.5, 77.2%, 51.5%)" stroke-width="1.5"></path><path d="M972.6 412.45L1111.45 522.23" stroke="hsl(228.5, 77.2%, 51.5%)" stroke-width="1.5"></path><path d="M972.6 412.45L1142.96 342.48" stroke="hsl(228.5, 77.2%, 51.5%)" stroke-width="1.5"></path><path d="M1111.45 522.23L1111.45 522.23" stroke="hsl(228.5, 77.2%, 51.5%)" stroke-width="1.5"></path><path d="M1111.45 522.23L1241.86 512.91" stroke="hsl(228.5, 77.2%, 51.5%)" stroke-width="1.5"></path><path d="M1111.45 522.23L1157.33 679.93" stroke="hsl(228.5, 77.2%, 51.5%)" stroke-width="1.5"></path><path d="M1111.45 522.23L938.06 501.89" stroke="hsl(228.5, 77.2%, 51.5%)" stroke-width="1.5"></path><path d="M1111.45 522.23L1142.96 342.48" stroke="hsl(228.5, 77.2%, 51.5%)" stroke-width="1.5"></path><path d="M1292.52 53.62L1292.52 53.62" stroke="hsl(228.5, 77.2%, 51.5%)" stroke-width="1.5"></path><path d="M1292.52 53.62L1270.96 -48.45" stroke="hsl(228.5, 77.2%, 51.5%)" stroke-width="1.5"></path><path d="M1292.52 53.62L1426.25 97.59" stroke="hsl(228.5, 77.2%, 51.5%)" stroke-width="1.5"></path><path d="M1292.52 53.62L1397.64 219.31" stroke="hsl(228.5, 77.2%, 51.5%)" stroke-width="1.5"></path><path d="M1292.52 53.62L1425.63 -90.65" stroke="hsl(228.5, 77.2%, 51.5%)" stroke-width="1.5"></path><path d="M1292.52 53.62L1309.96 262.49" stroke="hsl(228.5, 77.2%, 51.5%)" stroke-width="1.5"></path><path d="M1292.52 53.62L1148.67 245.95" stroke="hsl(228.5, 77.2%, 51.5%)" stroke-width="1.5"></path><path d="M1426.73 688.53L1426.73 688.53" stroke="hsl(228.5, 77.2%, 51.5%)" stroke-width="1.5"></path><path d="M1426.73 688.53L1298.23 671.11" stroke="hsl(228.5, 77.2%, 51.5%)" stroke-width="1.5"></path><path d="M1426.73 688.53L1455.81 554.9" stroke="hsl(228.5, 77.2%, 51.5%)" stroke-width="1.5"></path><path d="M1426.73 688.53L1577.3 680.51" stroke="hsl(228.5, 77.2%, 51.5%)" stroke-width="1.5"></path><path d="M-103.57 657.91L-103.57 657.91" stroke="hsl(228.5, 77.2%, 51.5%)" stroke-width="1.5"></path><path d="M-103.57 657.91L45.43 516.87" stroke="hsl(228.5, 77.2%, 51.5%)" stroke-width="1.5"></path><path d="M-103.57 657.91L228.44 653.56" stroke="hsl(228.5, 77.2%, 51.5%)" stroke-width="1.5"></path><path d="M45.43 516.87L45.43 516.87" stroke="hsl(228.5, 77.2%, 51.5%)" stroke-width="1.5"></path><path d="M45.43 516.87L247.78 511.23" stroke="hsl(228.5, 77.2%, 51.5%)" stroke-width="1.5"></path><path d="M45.43 516.87L228.44 653.56" stroke="hsl(228.5, 77.2%, 51.5%)" stroke-width="1.5"></path><path d="M247.78 511.23L247.78 511.23" stroke="hsl(228.5, 77.2%, 51.5%)" stroke-width="1.5"></path><path d="M247.78 511.23L347.63 516.33" stroke="hsl(228.5, 77.2%, 51.5%)" stroke-width="1.5"></path><path d="M247.78 511.23L228.44 653.56" stroke="hsl(228.5, 77.2%, 51.5%)" stroke-width="1.5"></path><path d="M247.78 511.23L339.08 677.65" stroke="hsl(228.5, 77.2%, 51.5%)" stroke-width="1.5"></path><path d="M247.78 511.23L39.89 660.31" stroke="hsl(228.5, 77.2%, 51.5%)" stroke-width="1.5"></path><path d="M228.44 653.56L228.44 653.56" stroke="hsl(228.5, 77.2%, 51.5%)" stroke-width="1.5"></path><path d="M228.44 653.56L339.08 677.65" stroke="hsl(228.5, 77.2%, 51.5%)" stroke-width="1.5"></path><path d="M228.44 653.56L347.63 516.33" stroke="hsl(228.5, 77.2%, 51.5%)" stroke-width="1.5"></path><path d="M347.63 516.33L347.63 516.33" stroke="hsl(228.5, 77.2%, 51.5%)" stroke-width="1.5"></path><path d="M347.63 516.33L339.08 677.65" stroke="hsl(228.5, 77.2%, 51.5%)" stroke-width="1.5"></path><path d="M347.63 516.33L511.09 526.25" stroke="hsl(228.5, 77.2%, 51.5%)" stroke-width="1.5"></path><path d="M339.08 677.65L339.08 677.65" stroke="hsl(228.5, 77.2%, 51.5%)" stroke-width="1.5"></path><path d="M511.09 526.25L511.09 526.25" stroke="hsl(228.5, 77.2%, 51.5%)" stroke-width="1.5"></path><path d="M511.09 526.25L504.92 638" stroke="hsl(228.5, 77.2%, 51.5%)" stroke-width="1.5"></path><path d="M511.09 526.25L679.53 552.98" stroke="hsl(228.5, 77.2%, 51.5%)" stroke-width="1.5"></path><path d="M511.09 526.25L659.04 667.09" stroke="hsl(228.5, 77.2%, 51.5%)" stroke-width="1.5"></path><path d="M504.92 638L504.92 638" stroke="hsl(228.5, 77.2%, 51.5%)" stroke-width="1.5"></path><path d="M504.92 638L339.08 677.65" stroke="hsl(228.5, 77.2%, 51.5%)" stroke-width="1.5"></path><path d="M700.24 392.49L700.24 392.49" stroke="hsl(228.5, 77.2%, 51.5%)" stroke-width="1.5"></path><path d="M700.24 392.49L679.53 552.98" stroke="hsl(228.5, 77.2%, 51.5%)" stroke-width="1.5"></path><path d="M700.24 392.49L797.96 558.2" stroke="hsl(228.5, 77.2%, 51.5%)" stroke-width="1.5"></path><path d="M700.24 392.49L511.09 526.25" stroke="hsl(228.5, 77.2%, 51.5%)" stroke-width="1.5"></path><path d="M797.96 558.2L797.96 558.2" stroke="hsl(228.5, 77.2%, 51.5%)" stroke-width="1.5"></path><path d="M797.96 558.2L836.7 685.96" stroke="hsl(228.5, 77.2%, 51.5%)" stroke-width="1.5"></path><path d="M797.96 558.2L938.06 501.89" stroke="hsl(228.5, 77.2%, 51.5%)" stroke-width="1.5"></path><path d="M797.96 558.2L659.04 667.09" stroke="hsl(228.5, 77.2%, 51.5%)" stroke-width="1.5"></path><path d="M836.7 685.96L836.7 685.96" stroke="hsl(228.5, 77.2%, 51.5%)" stroke-width="1.5"></path><path d="M836.7 685.96L949.74 666.27" stroke="hsl(228.5, 77.2%, 51.5%)" stroke-width="1.5"></path><path d="M981.31 242.32L981.31 242.32" stroke="hsl(228.5, 77.2%, 51.5%)" stroke-width="1.5"></path><path d="M981.31 242.32L1148.67 245.95" stroke="hsl(228.5, 77.2%, 51.5%)" stroke-width="1.5"></path><path d="M981.31 242.32L1142.96 342.48" stroke="hsl(228.5, 77.2%, 51.5%)" stroke-width="1.5"></path><path d="M938.06 501.89L938.06 501.89" stroke="hsl(228.5, 77.2%, 51.5%)" stroke-width="1.5"></path><path d="M938.06 501.89L949.74 666.27" stroke="hsl(228.5, 77.2%, 51.5%)" stroke-width="1.5"></path><path d="M949.74 666.27L949.74 666.27" stroke="hsl(228.5, 77.2%, 51.5%)" stroke-width="1.5"></path><path d="M1148.67 245.95L1148.67 245.95" stroke="hsl(228.5, 77.2%, 51.5%)" stroke-width="1.5"></path><path d="M1148.67 245.95L1142.96 342.48" stroke="hsl(228.5, 77.2%, 51.5%)" stroke-width="1.5"></path><path d="M1148.67 245.95L1309.96 262.49" stroke="hsl(228.5, 77.2%, 51.5%)" stroke-width="1.5"></path><path d="M1142.96 342.48L1142.96 342.48" stroke="hsl(228.5, 77.2%, 51.5%)" stroke-width="1.5"></path><path d="M1142.96 342.48L1295.59 398.06" stroke="hsl(228.5, 77.2%, 51.5%)" stroke-width="1.5"></path><path d="M1157.33 679.93L1157.33 679.93" stroke="hsl(228.5, 77.2%, 51.5%)" stroke-width="1.5"></path><path d="M1157.33 679.93L1298.23 671.11" stroke="hsl(228.5, 77.2%, 51.5%)" stroke-width="1.5"></path><path d="M1157.33 679.93L1241.86 512.91" stroke="hsl(228.5, 77.2%, 51.5%)" stroke-width="1.5"></path><path d="M1157.33 679.93L949.74 666.27" stroke="hsl(228.5, 77.2%, 51.5%)" stroke-width="1.5"></path><path d="M1157.33 679.93L1426.73 688.53" stroke="hsl(228.5, 77.2%, 51.5%)" stroke-width="1.5"></path><path d="M1157.33 679.93L938.06 501.89" stroke="hsl(228.5, 77.2%, 51.5%)" stroke-width="1.5"></path><path d="M1270.96 -48.45L1270.96 -48.45" stroke="hsl(228.5, 77.2%, 51.5%)" stroke-width="1.5"></path><path d="M1270.96 -48.45L1425.63 -90.65" stroke="hsl(228.5, 77.2%, 51.5%)" stroke-width="1.5"></path><path d="M1270.96 -48.45L1426.25 97.59" stroke="hsl(228.5, 77.2%, 51.5%)" stroke-width="1.5"></path><path d="M1270.96 -48.45L1562.32 -95.25" stroke="hsl(228.5, 77.2%, 51.5%)" stroke-width="1.5"></path><path d="M1309.96 262.49L1309.96 262.49" stroke="hsl(228.5, 77.2%, 51.5%)" stroke-width="1.5"></path><path d="M1309.96 262.49L1397.64 219.31" stroke="hsl(228.5, 77.2%, 51.5%)" stroke-width="1.5"></path><path d="M1309.96 262.49L1295.59 398.06" stroke="hsl(228.5, 77.2%, 51.5%)" stroke-width="1.5"></path><path d="M1309.96 262.49L1142.96 342.48" stroke="hsl(228.5, 77.2%, 51.5%)" stroke-width="1.5"></path><path d="M1295.59 398.06L1295.59 398.06" stroke="hsl(228.5, 77.2%, 51.5%)" stroke-width="1.5"></path><path d="M1295.59 398.06L1241.86 512.91" stroke="hsl(228.5, 77.2%, 51.5%)" stroke-width="1.5"></path><path d="M1295.59 398.06L1424.87 410.18" stroke="hsl(228.5, 77.2%, 51.5%)" stroke-width="1.5"></path><path d="M1295.59 398.06L1397.64 219.31" stroke="hsl(228.5, 77.2%, 51.5%)" stroke-width="1.5"></path><path d="M1295.59 398.06L1148.67 245.95" stroke="hsl(228.5, 77.2%, 51.5%)" stroke-width="1.5"></path><path d="M1241.86 512.91L1241.86 512.91" stroke="hsl(228.5, 77.2%, 51.5%)" stroke-width="1.5"></path><path d="M1241.86 512.91L1298.23 671.11" stroke="hsl(228.5, 77.2%, 51.5%)" stroke-width="1.5"></path><path d="M1241.86 512.91L1142.96 342.48" stroke="hsl(228.5, 77.2%, 51.5%)" stroke-width="1.5"></path><path d="M1241.86 512.91L1424.87 410.18" stroke="hsl(228.5, 77.2%, 51.5%)" stroke-width="1.5"></path><path d="M1298.23 671.11L1298.23 671.11" stroke="hsl(228.5, 77.2%, 51.5%)" stroke-width="1.5"></path><path d="M1425.63 -90.65L1425.63 -90.65" stroke="hsl(228.5, 77.2%, 51.5%)" stroke-width="1.5"></path><path d="M1425.63 -90.65L1562.32 -95.25" stroke="hsl(228.5, 77.2%, 51.5%)" stroke-width="1.5"></path><path d="M1425.63 -90.65L1426.25 97.59" stroke="hsl(228.5, 77.2%, 51.5%)" stroke-width="1.5"></path><path d="M1425.63 -90.65L1603.88 73.34" stroke="hsl(228.5, 77.2%, 51.5%)" stroke-width="1.5"></path><path d="M1426.25 97.59L1426.25 97.59" stroke="hsl(228.5, 77.2%, 51.5%)" stroke-width="1.5"></path><path d="M1426.25 97.59L1397.64 219.31" stroke="hsl(228.5, 77.2%, 51.5%)" stroke-width="1.5"></path><path d="M1426.25 97.59L1603.88 73.34" stroke="hsl(228.5, 77.2%, 51.5%)" stroke-width="1.5"></path><path d="M1397.64 219.31L1397.64 219.31" stroke="hsl(228.5, 77.2%, 51.5%)" stroke-width="1.5"></path><path d="M1397.64 219.31L1424.87 410.18" stroke="hsl(228.5, 77.2%, 51.5%)" stroke-width="1.5"></path><path d="M1424.87 410.18L1424.87 410.18" stroke="hsl(228.5, 77.2%, 51.5%)" stroke-width="1.5"></path><path d="M1424.87 410.18L1564.23 393.06" stroke="hsl(228.5, 77.2%, 51.5%)" stroke-width="1.5"></path><path d="M1424.87 410.18L1455.81 554.9" stroke="hsl(228.5, 77.2%, 51.5%)" stroke-width="1.5"></path><path d="M1455.81 554.9L1455.81 554.9" stroke="hsl(228.5, 77.2%, 51.5%)" stroke-width="1.5"></path><path d="M1455.81 554.9L1587.19 534.07" stroke="hsl(228.5, 77.2%, 51.5%)" stroke-width="1.5"></path><path d="M1562.32 -95.25L1562.32 -95.25" stroke="hsl(228.5, 77.2%, 51.5%)" stroke-width="1.5"></path><path d="M1562.32 -95.25L1603.88 73.34" stroke="hsl(228.5, 77.2%, 51.5%)" stroke-width="1.5"></path><path d="M1603.88 73.34L1603.88 73.34" stroke="hsl(228.5, 77.2%, 51.5%)" stroke-width="1.5"></path><path d="M1603.88 73.34L1607.79 229.93" stroke="hsl(228.5, 77.2%, 51.5%)" stroke-width="1.5"></path><path d="M1603.88 73.34L1397.64 219.31" stroke="hsl(228.5, 77.2%, 51.5%)" stroke-width="1.5"></path><path d="M1607.79 229.93L1607.79 229.93" stroke="hsl(228.5, 77.2%, 51.5%)" stroke-width="1.5"></path><path d="M1607.79 229.93L1564.23 393.06" stroke="hsl(228.5, 77.2%, 51.5%)" stroke-width="1.5"></path><path d="M1607.79 229.93L1397.64 219.31" stroke="hsl(228.5, 77.2%, 51.5%)" stroke-width="1.5"></path><path d="M1607.79 229.93L1426.25 97.59" stroke="hsl(228.5, 77.2%, 51.5%)" stroke-width="1.5"></path><path d="M1607.79 229.93L1424.87 410.18" stroke="hsl(228.5, 77.2%, 51.5%)" stroke-width="1.5"></path><path d="M1607.79 229.93L1309.96 262.49" stroke="hsl(228.5, 77.2%, 51.5%)" stroke-width="1.5"></path><path d="M1564.23 393.06L1564.23 393.06" stroke="hsl(228.5, 77.2%, 51.5%)" stroke-width="1.5"></path><path d="M1564.23 393.06L1587.19 534.07" stroke="hsl(228.5, 77.2%, 51.5%)" stroke-width="1.5"></path><path d="M1564.23 393.06L1455.81 554.9" stroke="hsl(228.5, 77.2%, 51.5%)" stroke-width="1.5"></path><path d="M1564.23 393.06L1397.64 219.31" stroke="hsl(228.5, 77.2%, 51.5%)" stroke-width="1.5"></path><path d="M1564.23 393.06L1295.59 398.06" stroke="hsl(228.5, 77.2%, 51.5%)" stroke-width="1.5"></path><path d="M1587.19 534.07L1587.19 534.07" stroke="hsl(228.5, 77.2%, 51.5%)" stroke-width="1.5"></path><path d="M1587.19 534.07L1577.3 680.51" stroke="hsl(228.5, 77.2%, 51.5%)" stroke-width="1.5"></path><path d="M1587.19 534.07L1424.87 410.18" stroke="hsl(228.5, 77.2%, 51.5%)" stroke-width="1.5"></path><path d="M1587.19 534.07L1426.73 688.53" stroke="hsl(228.5, 77.2%, 51.5%)" stroke-width="1.5"></path><path d="M1587.19 534.07L1607.79 229.93" stroke="hsl(228.5, 77.2%, 51.5%)" stroke-width="1.5"></path><path d="M1577.3 680.51L1577.3 680.51" stroke="hsl(228.5, 77.2%, 51.5%)" stroke-width="1.5"></path><path d="M1577.3 680.51L1455.81 554.9" stroke="hsl(228.5, 77.2%, 51.5%)" stroke-width="1.5"></path><circle r="25" cx="-39.07" cy="538.72" fill="url(#SvgjsRadialGradient1001)"></circle><circle r="25" cx="39.89" cy="660.31" fill="url(#SvgjsRadialGradient1001)"></circle><circle r="25" cx="679.53" cy="552.98" fill="url(#SvgjsRadialGradient1001)"></circle><circle r="25" cx="659.04" cy="667.09" fill="url(#SvgjsRadialGradient1001)"></circle><circle r="25" cx="839.25" cy="368.09" fill="url(#SvgjsRadialGradient1001)"></circle><circle r="25" cx="972.6" cy="412.45" fill="url(#SvgjsRadialGradient1001)"></circle><circle r="25" cx="1111.45" cy="522.23" fill="url(#SvgjsRadialGradient1001)"></circle><circle r="25" cx="1292.52" cy="53.62" fill="url(#SvgjsRadialGradient1001)"></circle><circle r="25" cx="1426.73" cy="688.53" fill="url(#SvgjsRadialGradient1001)"></circle><circle r="5" cx="-103.57" cy="657.91" fill="#8b9ad9"></circle><circle r="5" cx="45.43" cy="516.87" fill="#8b9ad9"></circle><circle r="5" cx="247.78" cy="511.23" fill="#8b9ad9"></circle><circle r="5" cx="228.44" cy="653.56" fill="#8b9ad9"></circle><circle r="5" cx="347.63" cy="516.33" fill="#8b9ad9"></circle><circle r="5" cx="339.08" cy="677.65" fill="#8b9ad9"></circle><circle r="5" cx="511.09" cy="526.25" fill="#8b9ad9"></circle><circle r="5" cx="504.92" cy="638" fill="#8b9ad9"></circle><circle r="5" cx="700.24" cy="392.49" fill="#8b9ad9"></circle><circle r="5" cx="797.96" cy="558.2" fill="#8b9ad9"></circle><circle r="5" cx="836.7" cy="685.96" fill="#8b9ad9"></circle><circle r="5" cx="981.31" cy="242.32" fill="#8b9ad9"></circle><circle r="5" cx="938.06" cy="501.89" fill="#8b9ad9"></circle><circle r="5" cx="949.74" cy="666.27" fill="#8b9ad9"></circle><circle r="5" cx="1148.67" cy="245.95" fill="#8b9ad9"></circle><circle r="5" cx="1142.96" cy="342.48" fill="#8b9ad9"></circle><circle r="5" cx="1157.33" cy="679.93" fill="#8b9ad9"></circle><circle r="5" cx="1270.96" cy="-48.45" fill="#8b9ad9"></circle><circle r="5" cx="1309.96" cy="262.49" fill="#8b9ad9"></circle><circle r="5" cx="1295.59" cy="398.06" fill="#8b9ad9"></circle><circle r="5" cx="1241.86" cy="512.91" fill="#8b9ad9"></circle><circle r="5" cx="1298.23" cy="671.11" fill="#8b9ad9"></circle><circle r="5" cx="1425.63" cy="-90.65" fill="#8b9ad9"></circle><circle r="5" cx="1426.25" cy="97.59" fill="#8b9ad9"></circle><circle r="5" cx="1397.64" cy="219.31" fill="#8b9ad9"></circle><circle r="5" cx="1424.87" cy="410.18" fill="#8b9ad9"></circle><circle r="5" cx="1455.81" cy="554.9" fill="#8b9ad9"></circle><circle r="5" cx="1562.32" cy="-95.25" fill="#8b9ad9"></circle><circle r="5" cx="1603.88" cy="73.34" fill="#8b9ad9"></circle><circle r="5" cx="1607.79" cy="229.93" fill="#8b9ad9"></circle><circle r="5" cx="1564.23" cy="393.06" fill="#8b9ad9"></circle><circle r="5" cx="1587.19" cy="534.07" fill="#8b9ad9"></circle><circle r="5" cx="1577.3" cy="680.51" fill="#8b9ad9"></circle></g><defs><mask id="SvgjsMask1000"><rect width="1440" height="560" fill="#ffffff"></rect></mask><radialGradient id="SvgjsRadialGradient1001"><stop stop-color="#ffffff" offset="0.1"></stop><stop stop-color="#1735b3" offset="0.2"></stop><stop stop-color="rgba(23, 53, 179, 0)" offset="1"></stop></radialGradient></defs></svg>